/vscmnt/brussel_pixiu_data/_data_brussel/112/vsc11236/PredSimResults/SUBJ04mtu3D/worker7.mot
version=1
nRows=4
nColumns=50
inDegrees=yes
endheader
                time	         pelvis_tilt	         pelvis_list	     pelvis_rotation	           pelvis_tx	           pelvis_ty	           pelvis_tz	       hip_flexion_r	     hip_adduction_r	      hip_rotation_r	        knee_angle_r	       ankle_angle_r	         mtp_angle_r	       hip_flexion_l	     hip_adduction_l	      hip_rotation_l	        knee_angle_l	       ankle_angle_l	         mtp_angle_l	    lumbar_extension	      lumbar_bending	     lumbar_rotation	 ercspn_r/activation	 intobl_r/activation	 extobl_r/activation	    abd_r/activation	    add_r/activation	hamstrings_r/activation	bifemsh_r/activation	glut_max_r/activation	iliopsoas_r/activation	rect_fem_r/activation	  vasti_r/activation	gastroc_r/activation	 soleus_r/activation	tib_ant_r/activation	 ercspn_l/activation	 intobl_l/activation	 extobl_l/activation	    abd_l/activation	    add_l/activation	hamstrings_l/activation	bifemsh_l/activation	glut_max_l/activation	iliopsoas_l/activation	rect_fem_l/activation	  vasti_l/activation	gastroc_l/activation	 soleus_l/activation	tib_ant_l/activation	
          0.70568017	         -2.96558550	         -3.65210921	         -4.21937884	          0.66333936	          0.87634665	          0.00158017	        -12.58590097	          2.58467584	        -17.37241371	         -9.04766691	          9.22950352	         26.67330365	         31.08131093	         -4.78646851	        -10.33330476	         -8.68569361	          6.99070971	          0.22931778	        -14.53675974	         10.23155409	          4.36787460	          0.01000007	          0.01000012	          0.01000013	          0.04610689	          0.01000127	          0.03191848	          0.10566371	          0.02765888	          0.01000020	          0.01000023	          0.01183357	          0.32846397	          0.25252927	          0.01126521	          0.01000054	          0.08425695	          0.05025346	          0.01000001	          0.24992215	          0.09074509	          0.17627636	          0.03276407	          0.10561020	          0.01626585	          0.01000006	          0.03524996	          0.01865960	          0.18263326	
          0.71979377	         -3.00667935	         -3.43216903	         -4.18699263	          0.68033291	          0.87455297	          0.00158518	        -13.29776879	          2.17356277	        -17.82443929	         -9.73092547	          8.70622839	         28.10046991	         30.78758014	         -4.65852359	        -10.77650846	        -10.12963706	          6.61638175	          0.22136188	        -14.05432468	          9.17400903	          4.28403616	          0.01000080	          0.01000003	          0.01000040	          0.03732667	          0.01000127	          0.02584206	          0.08554207	          0.02239176	          0.01000133	          0.01000024	          0.01000021	          0.30789844	          0.24056330	          0.01000003	          0.01000019	          0.06821193	          0.04068361	          0.02834125	          0.20232906	          0.08597111	          0.14270820	          0.09172297	          0.08549865	          0.01316836	          0.01000003	          0.02853730	          0.01510625	          0.21690851	
          0.73390738	         -3.03263736	         -3.13457641	         -4.11418907	          0.69772088	          0.87310902	          0.00151539	        -13.85853287	          1.62205757	        -18.30800809	        -10.76031199	          8.06628011	         29.57129750	         30.35625044	         -4.48269350	        -11.24580183	        -11.28606864	          6.03481981	          0.20980934	        -13.53376770	          7.99987436	          4.17964632	          0.01000033	          0.01000002	          0.01000006	          0.03021848	          0.01000060	          0.02092292	          0.06925221	          0.01812768	          0.01000324	          0.01006008	          0.01000194	          0.28158903	          0.22568812	          0.01000006	          0.01000452	          0.05522225	          0.03293617	          0.05717684	          0.16626628	          0.07300753	          0.11553214	          0.11400791	          0.06921698	          0.01066080	          0.02911414	          0.02310295	          0.01222968	          0.23986828	
          0.74802098	         -3.04611949	         -2.79561148	         -3.99450296	          0.71520810	          0.87222289	          0.00132770	        -14.17482886	          0.94396672	        -18.82626129	        -12.25984437	          7.24477085	         31.08920975	         29.91411847	         -4.27240625	        -11.79487342	        -12.43462923	          5.46733280	          0.19229685	        -13.01716773	          6.75868223	          4.05913227	          0.02647286	          0.01000003	          0.01000006	          0.02446392	          0.01000080	          0.01893232	          0.05606445	          0.01467564	          0.01000151	          0.01000058	          0.03034527	          0.24593316	          0.20720823	          0.01000005	          0.01230109	          0.04470619	          0.02666409	          0.08400479	          0.16675249	          0.06924154	          0.09353129	          0.09827505	          0.05603587	          0.01000029	          0.08283531	          0.01870349	          0.01000019	          0.26783971	
